<?xml version="1.0" encoding="UTF-8" standalone="no"?><!DOCTYPE svg PUBLIC "-//W3C//DTD SVG 1.1//EN" "http://www.w3.org/Graphics/SVG/1.1/DTD/svg11.dtd"><svg width="100%" height="100%" viewBox="0 0 199 199" version="1.1" xmlns="http://www.w3.org/2000/svg" xmlns:xlink="http://www.w3.org/1999/xlink" xml:space="preserve" xmlns:serif="http://www.serif.com/" style="fill-rule:evenodd;clip-rule:evenodd;stroke-linejoin:round;stroke-miterlimit:2;"><path d="M99.052,198.607c-29.491,-0.022 -53.246,-7.027 -69.844,-19.609c-16.797,-12.733 -25.708,-30.803 -25.708,-51.25c0,-19.701 8.891,-33.907 18.952,-43.509c7.884,-7.526 16.584,-12.345 22.642,-15.118c-1.369,-4.162 -3.079,-9.61 -4.608,-15.238c-2.046,-7.53 -4.053,-16.366 -4.053,-22.84c-0,-7.663 1.687,-15.36 6.238,-21.34c4.809,-6.318 12.047,-9.703 20.755,-9.703c6.806,0 12.584,2.499 17.108,6.81c4.324,4.121 7.202,9.593 9.189,15.298c3.491,10.025 4.851,22.618 5.232,35.187l8.341,-0c0.382,-12.569 1.741,-25.162 5.233,-35.187c1.987,-5.705 4.865,-11.177 9.189,-15.298c4.523,-4.311 10.301,-6.81 17.107,-6.81c8.708,0 15.947,3.385 20.755,9.703c4.551,5.98 6.239,13.677 6.239,21.34c0,6.474 -2.007,15.31 -4.054,22.84c-1.529,5.628 -3.238,11.076 -4.608,15.238c6.058,2.773 14.759,7.592 22.643,15.118c10.06,9.602 18.952,23.808 18.952,43.509c0,20.447 -8.911,38.517 -25.708,51.25c-16.599,12.582 -40.354,19.587 -69.844,19.609l-0.148,0Z" style="fill:#633001;"/><path d="M63.426,7.288c-12.754,0 -18.626,9.516 -18.626,22.675c0,10.46 6.822,31.408 9.621,39.563c0.63,1.834 -0.359,3.844 -2.164,4.555c-10.222,4.031 -40.389,18.789 -40.389,52.588c-0,35.603 30.657,62.448 87.19,62.491c0.023,-0 0.045,-0.001 0.068,-0.001c0.022,-0 0.045,0.001 0.067,0.001c56.534,-0.043 87.19,-26.888 87.19,-62.491c0,-33.799 -30.167,-48.557 -40.389,-52.588c-1.804,-0.711 -2.794,-2.721 -2.164,-4.555c2.799,-8.155 9.621,-29.103 9.621,-39.563c0,-13.159 -5.871,-22.675 -18.626,-22.675c-18.36,0 -22.936,26.007 -23.263,53.92c-0.022,1.863 -1.528,3.375 -3.392,3.375l-18.089,-0c-1.864,-0 -3.37,-1.512 -3.392,-3.376c-0.326,-27.912 -4.903,-53.919 -23.263,-53.919Z" style="fill:#d1884f;fill-rule:nonzero;"/><path d="M99.193,177.755c-41.538,0 -87.253,-22.235 -87.325,-51.018c0,0.044 -0,0.089 -0,0.134c-0,35.632 30.705,62.491 87.325,62.491c56.62,0 87.325,-26.859 87.325,-62.491l0,-0.134c-0.072,28.783 -45.787,51.018 -87.325,51.018Z" style="fill:#fedc90;fill-rule:nonzero;"/><path d="M76.114,117.896c-0.001,9.718 -4.593,14.779 -10.258,14.779c-5.665,0 -10.258,-5.061 -10.258,-14.779c0,-9.718 4.593,-14.779 10.258,-14.779c5.665,-0 10.257,5.061 10.257,14.779Z" style="fill:#633001;fill-rule:nonzero;"/><path d="M142.788,117.896c0,9.718 -4.592,14.779 -10.257,14.779c-5.666,0 -10.258,-5.061 -10.258,-14.779c-0,-9.718 4.592,-14.779 10.258,-14.779c5.665,-0 10.257,5.061 10.257,14.779Z" style="fill:#633001;fill-rule:nonzero;"/></svg>